<?xml version="1.0" encoding="UTF-8"?>
<svg id="Camada_1" data-name="Camada 1" xmlns="http://www.w3.org/2000/svg" version="1.1" viewBox="0 0 1479.9 1022.4">
  <defs>
    <style>
      .cls-1 {
        fill: #fb3a81;
        fill-rule: evenodd;
        stroke-width: 0px;
      }
    </style>
  </defs>
  <path class="cls-1" d="M142.2,395.8c-42.6-31.1-80.6-66.4-101.1-100.9C-22,193.3-8.3,91.5,53.6,39.8,103.5-1.9,192.4-14.6,261.5,29.7c68.3-45.7,157.4-34.8,208.1,5.9,16.6,13.3,29.9,30.1,39.4,49.6,61.1,22.7,118.1,66.1,159.7,135.1,112.4-186.2,337.2-186.2,449.6-94.3,58.2,47.7,86.3,120,84.2,204.3,103-12.3,201.8,40.3,246.7,111.8,63.1,100.4,29.4,247-105,360.3-82.3,72.9-243.7,121.7-374.3,144.8l-35.6,6.3-24.6-26.5c-22.3-24.1-45.3-50.6-67.4-78.5-57.7,39.1-117.5,74.7-173.6,105.3-17.4-9.5-35.2-19.5-53.2-30-15.3,24.5-31.4,48-47.2,69.4l-21.5,29.1-36.1-2.4c-105.2-6.9-236.8-32-308.2-82.3-120.7-80.9-159.4-199.3-116.7-287.5,20.5-42.4,61.8-80.1,112.8-100.2-28-52.6-46.8-104.7-56.3-154.1h0ZM558.9,889.9l-.7,1.1-.7,1-.6,1-.7,1.1h0s0,0,0,0l-.5.8-.8,1.2h0s0,0,0,0l-.5.7-.8,1.3h0c0,0,0,0,0,0l-.4.6-.9,1.4h0s0,0,0,0l-.4.5-1,1.5h0c-3.6,5.6-7.3,11-10.9,16.4h0s-.2.3-.2.3l-1,1.4-.2.3h0c0,0-.3.5-.3.5l-.8,1.2-.2.3v.2c0,0-.4.5-.4.5l-.7,1v.2c-.9,1.1-1.7,2.2-2.4,3.3l-.2.3-.2.2c-.8,1.1-1.5,2.2-2.3,3.2l-.2.3-.2.3c-.8,1.1-1.5,2.2-2.3,3.2l-.2.2-.2.3c-.8,1.1-1.5,2.1-2.3,3.2l-.2.2-.2.3c-.8,1.1-1.5,2.2-2.3,3.2v.2c-.1,0-.3.3-.3.3-.8,1.1-1.5,2.1-2.3,3.2v.2c-.1,0-1.8,2.3-1.8,2.3l-.8,1.1h0c0,0,0,.2,0,.2l-2.6,3.6c-93.7-6.1-211.7-25.8-275-70.8-70.4-47-108.6-108.8-104.9-164.4.2-2.9.5-5.7.9-8.5.9-6.5,2.5-12.8,4.6-19,.3-.8.5-1.5.8-2.3.7-2,1.5-3.9,2.4-5.9.2-.4.4-.8.6-1.2.4-.8.8-1.7,1.2-2.5.1-.2.2-.5.4-.8v-.2c.1,0,.4-.5.4-.5v-.3c.1,0,.4-.4.4-.4h0s.2-.3.2-.3l.2-.4h0s.2-.3.2-.3l.2-.4h0s.2-.4.2-.4l.2-.4h0s.2-.4.2-.4l.2-.4h0s0,0,0,0l.2-.3.2-.4h0s.2-.4.2-.4l.2-.4h0s0,0,0,0l.2-.3.2-.4h0s0,0,0,0l.2-.3.2-.3h0s0,0,0,0l.2-.3.2-.3h0s0,0,0,0l.2-.3.2-.3h0c0,0,.2-.4.2-.4l.2-.3h0s0,0,0,0l.2-.3.2-.3h0s0,0,0,0l.2-.3.2-.3h0s0,0,0,0l.2-.3.2-.3h0s0,0,0,0l.2-.3.2-.3h0s0,0,0,0l.4-.6h0s.2-.4.2-.4l.2-.3h0c0,0,.2-.4.2-.4l.2-.3h0c0,0,.2-.4.2-.4l.2-.3h0s0,0,0,0l.2-.3.2-.3h0s0-.1,0-.1l.2-.3.2-.3h0c0-.1.2-.4.2-.4l.2-.3h0c0,0,0-.1,0-.1l.2-.3.2-.3h0c0,0,0-.1,0-.1l.2-.3.2-.3h0c0,0,0-.1,0-.1l.2-.3.2-.3h0c0,0,0-.1,0-.1l.2-.3.2-.3h0c0,0,.3-.4.3-.4l.2-.3h0c0,0,0-.1,0-.1l.2-.3.2-.3h0c0,0,0-.1,0-.1l.2-.3.2-.3h0c0,0,0-.2,0-.2l.2-.3.2-.2h0c0,0,0-.2,0-.2l.2-.3.2-.2h0c0,0,0-.2,0-.2l.2-.3.2-.2h0c0,0,0-.2,0-.2l.2-.3.2-.2h0c0,0,0-.2,0-.2l.2-.3.2-.2h0c0,0,0-.2,0-.2l.2-.3.2-.2h0c0,0,0-.2,0-.2l.2-.3.2-.2h0c0,0,0-.2,0-.2l.2-.3.2-.2h0c0,0,0-.2,0-.2l.2-.2.2-.2h0c0,0,0-.2,0-.2l.2-.2.2-.2h0c0,0,0-.2,0-.2l.2-.2.2-.2h0c0,0,.1-.2.1-.2l.2-.2.2-.2h0c0,0,.1-.2.1-.2l.2-.2.2-.2h0c0,0,.1-.2.1-.2l.2-.2.2-.2h0c0,0,.1-.2.1-.2l.2-.2.2-.2h0c0,0,.1-.2.1-.2l.2-.2.2-.2.2-.2.2-.2.2-.2.2-.2.2-.2.2-.2h0c0,0,.1-.2.1-.2l.2-.2.2-.2h.1c0,0,.1-.2.1-.2l.2-.2.2-.2h.1c0,0,.1-.2.1-.2l.2-.2.2-.2h.1c0,0,.1-.2.1-.2l.2-.2.2-.2h.1c0,0,.1-.2.1-.2l.2-.2.2-.2h.1c0,0,.1-.2.1-.2l.2-.2.2-.2h.1c0,0,.1-.2.1-.2l.2-.2.2-.2h.1c0,0,.1-.2.1-.2l.2-.2.2-.2h.1c0,0,.2-.2.2-.2l.2-.2.2-.2h.1c0,0,.2-.2.2-.2l.2-.2h.2c0-.1.1-.2.1-.2h.2c0-.1.2-.4.2-.4h.2c0-.1.1-.2.1-.2l.2-.2.2-.2h.2c0-.1.1-.2.1-.2l.2-.2.2-.2h.2c0-.1.1-.2.1-.2l.2-.2.2-.2h.2c0-.1.1-.2.1-.2l.2-.2.2-.2h.1c0-.1.1-.2.1-.2l.2-.2.2-.2h.1c0-.1.1-.2.1-.2l.2-.2.2-.2h.1c0-.1.1-.2.1-.2l.2-.2.2-.2h.1c0-.1.1-.2.1-.2l.2-.2.2-.2h.1c0-.1.1-.2.1-.2l.2-.2.2-.2h.1c0-.1.1-.2.1-.2l.2-.2.2-.2h.1c0-.1.1-.2.1-.2l.2-.2.2-.2h.1c0,0,.1-.2.1-.2l.2-.2.2-.2h.1c0,0,.1-.2.1-.2l.2-.2.2-.2h.1c0,0,.1-.2.1-.2l.2-.2.2-.2h.1c0,0,.1-.2.1-.2l.2-.2.2-.2h.1c0,0,.1-.2.1-.2l.3-.2.2-.2h.1c0,0,.1-.2.1-.2l.3-.2.2-.2h.1c0,0,.1-.2.1-.2l.3-.2.2-.2h.1c0,0,.1-.2.1-.2l.3-.2.2-.2h.1c0,0,.1-.2.1-.2l.3-.2.2-.2h.1c0,0,.1-.2.1-.2l.3-.2.2-.2h.1c0,0,.1-.2.1-.2l.3-.2.2-.2h.1c0,0,.1-.2.1-.2l.3-.2.2-.2h.1c0,0,.1-.2.1-.2l.3-.2.2-.2h.1c0,0,.1-.2.1-.2l.3-.2h.2c0-.1.1-.2.1-.2h.1c0,0,.3-.3.3-.3h.2c0-.1,0-.2,0-.2h.1c0,0,.3-.3.3-.3h.2c0-.1,0-.2,0-.2h.1c0,0,.3-.3.3-.3h.2c0-.1,0-.2,0-.2h.1c0,0,.4-.3.4-.3h.2c0-.1,0-.2,0-.2h.1c0,0,.4-.3.4-.3h.2c0-.1,0-.2,0-.2h.1c0,0,.4-.3.4-.3h.2c0-.1,0-.2,0-.2h.1c0,0,.4-.3.4-.3h.2c0-.1,0-.2,0-.2h.1c0,0,.4-.3.4-.3h.2c0-.1,0-.2,0-.2h.1c0,0,.4-.3.4-.3h.2c0-.1,0-.2,0-.2h.1c0,0,.4-.3.4-.3h.2c0-.1,0-.2,0-.2h.1c0,0,.4-.3.4-.3h.2c0-.1,0-.2,0-.2h.1c0,0,.4-.3.4-.3h.2c0-.1,0-.1,0-.1h.1c0,0,.6-.4.6-.4h.2c0,0,.4-.3.4-.3h.2c0-.1,0-.1,0-.1h.1c0,0,.4-.3.4-.3h.2c0-.1,0-.1,0-.1h.1c0,0,.5-.3.5-.3h.2c0,0,.2-.2.2-.2l.5-.2h.2c0,0,0-.1,0-.1h.1s.5-.3.5-.3h.2c0,0,0-.1,0-.1h.1s.5-.3.5-.3h.2c0,0,0-.1,0-.1h.1s.5-.3.5-.3h.2c0,0,0-.1,0-.1h.1s.5-.3.5-.3h.2c0,0,0-.1,0-.1h.1s.5-.3.5-.3h.2c0,0,0-.1,0-.1h.1s.5-.3.5-.3h.2c0,0,0-.1,0-.1h.1s.6-.3.6-.3h.2c0,0,0-.1,0-.1h.1s.6-.3.6-.3h.2c0,0,0,0,0,0h.1s.6-.3.6-.3h.2c0,0,0,0,0,0h0s.6-.3.6-.3h.2c0,0,0,0,0,0h0s.6-.3.6-.3h.2c0,0,0,0,0,0h0s.6-.3.6-.3h.2c0,0,0-.1,0-.1l.6-.2h.2c0,0,.1-.1.1-.1l.6-.2h.2c0,0,0,0,0,0h0s.6-.3.6-.3h.2c0,0,0,0,0,0h0s.7-.3.7-.3h.2c0,0,0,0,0,0h0s.7-.3.7-.3h.2c0,0,0,0,0,0h0s.7-.3.7-.3h.1s0,0,0,0h0s.7-.3.7-.3h.1s0,0,0,0l.7-.2h.1s.8-.3.8-.3h.1s.8-.3.8-.3h.1s.8-.3.8-.3h.1s.8-.3.8-.3h.1c40.2-12.8,87.9-9.8,132.5,20.4,11.6-105.7,111.3-151.9,180-134.2,68.8,17.7,106.5,99.3,94.5,203.9-4.8,57.1-39.5,128-79.8,191.6h0ZM1194.5,398.9l1-.2.8-.2h0s0,0,0,0h.4c0,0,.5-.2.5-.2h0s.2,0,.2,0c.9-.2,1.7-.3,2.6-.5h.2s0,0,0,0h.4c0,0,.4-.2.4-.2h.2c.8-.2,1.7-.3,2.6-.5h.2s.1,0,.1,0h.5c0,0,.3-.1.3-.1h.2s.8-.1.8-.1c.4,0,.9-.1,1.3-.2h.5c0,0,0,0,0,0h0c1.2-.2,2.5-.3,3.7-.5h.1c1.2-.2,2.5-.3,3.7-.4h0s.8,0,.8,0h.9c0,0,0,0,0,0,.6,0,1.2-.1,1.9-.2h1c0,0,.8-.1.8-.1h.1c1.2,0,2.4-.2,3.7-.2h.2c1.2,0,2.4-.1,3.6-.1h.2c1.2,0,2.4,0,3.6,0h.2c1.2,0,2.4,0,3.6,0h1.9s0,0,0,0c.6,0,1.2,0,1.8,0h1s.8,0,.8,0h.2c.6,0,1.2,0,1.8,0h1.1c0,0,.7.1.7.1h.2c1.2,0,2.3.2,3.5.2h.2c1.2.1,2.3.2,3.5.3h.3c1.2.1,2.3.3,3.4.4h.1s.1,0,.1,0h.6c0,0,1,.2,1,.2h0c.6,0,1.2.1,1.7.2h.2s.7.1.7.1h.8c0,.1.1.1.1.1h0c.6.1,1.1.2,1.7.3h.2s.8.2.8.2h.7c0,.1.2.1.2.1h0c.6.1,1.1.2,1.7.3h.1s1,.2,1,.2h.6c0,.1.2.1.2.1h.1c1.1.2,2.2.5,3.3.7h.2s.1,0,.1,0c1.1.2,2.2.5,3.3.7h.1s.2,0,.2,0h.5c0,.1,1.1.4,1.1.4h0c.6.1,1.1.3,1.7.4h.1s.2,0,.2,0h.6c0,.1.9.4.9.4h.1s0,0,0,0c.5.1,1.1.3,1.6.4h0s.2,0,.2,0l.7.2.7.2h.2s0,0,0,0c.5.1,1.1.3,1.6.4h.2c0,0,.8.3.8.3l.6.2h.2s.1,0,.1,0c.5.1,1.1.3,1.6.5h.1s1,.3,1,.3l.5.2h.2s.1,0,.1,0c1.1.3,2.1.6,3.1,1h.3c0,.1.4.2.4.2l1.1.4h0c.5.2,1,.4,1.6.5h.1s.2.1.2.1l.5.2.9.3h.1s0,0,0,0c.5.2,1,.4,1.5.6h.1s.2.1.2.1l.6.2.7.3h.2c0,0,0,0,0,0,.5.2,1,.4,1.5.6h0s.2.1.2.1l.7.3.6.2h.2c0,0,0,.1,0,.1.5.2,1,.4,1.5.6h0s.2,0,.2,0l.8.3.5.2h.2c0,0,.1.1.1.1.5.2,1,.4,1.5.6h.1s.9.5.9.5l.4.2h.2c0,0,.2.1.2.1,1,.4,1.9.9,2.9,1.3h.2c0,0,.2.2.2.2l.4.2.9.4h0s0,0,0,0c.5.2.9.5,1.4.7h.1c0,0,.2.2.2.2l.5.2.8.4h.2c0,0,0,.1,0,.1.5.2.9.5,1.4.7h.1s.8.4.8.4l.6.3h.2c0,0,0,.1,0,.1.5.2.9.5,1.4.7h0s.2.1.2.1l.7.4.5.3h.2c0,.1.1.2.1.2.5.2.9.5,1.4.7h0s.2.1.2.1l.8.4.4.2h.2c0,.1.1.2.1.2.5.3.9.5,1.3.8h0s.9.6.9.6l.3.2h.2c0,.1.2.2.2.2l.3.2,1,.6h0s0,0,0,0c.4.3.9.5,1.3.8h.1c0,0,.2.2.2.2l.4.2.8.5h.1c0,0,0,0,0,0,.4.3.9.5,1.3.8h.1c0,0,.2.2.2.2l.5.3.6.4h.2c0,.1,0,.2,0,.2.4.3.8.5,1.3.8h0c0,0,.2.2.2.2l.5.4.5.4h.2c0,.1,0,.2,0,.2.4.3.8.6,1.2.9h0s.2.2.2.2l.6.4.4.3h.2c0,.1.1.2.1.2.4.3.8.6,1.2.9h0s.1.1.1.1l.7.5.4.3h.2c0,.1.1.2.1.2.4.3.8.6,1.2.9l.9.7.3.2h.2c0,.1.2.2.2.2l.3.2.8.6h0c0,0,0,0,0,0,.4.3.8.6,1.2.9h.1c0,.1.2.2.2.2l.4.3.6.5h.2c0,.1,0,.2,0,.2.4.3.8.6,1.2.9h.1c0,0,.2.2.2.2l.4.4.5.4h.2c0,.1,0,.2,0,.2.4.3.8.6,1.1,1h0c0,0,.2.2.2.2l.5.4.4.4h.2c0,.1,0,.2,0,.2.4.3.7.6,1.1,1h0s.1.2.1.2l.6.5.3.3h.2c0,.1.1.3.1.3.4.3.7.7,1.1,1h0s0,0,0,0l.7.6.3.3h.2c0,.1.1.3.1.3l.3.2.8.8h0s0,0,0,0c.3.4.7.7,1.1,1h.1c0,.1.2.3.2.3l.3.3.6.6h.1c.3.5.7.8,1,1.2h.1c0,.1.2.3.2.3l.3.4.5.5h.1c0,.1,0,.2,0,.2.3.4.7.7,1,1h0c0,0,.2.2.2.2l.4.4.4.4.2.2h0c.3.4.6.8,1,1.1h0c0,0,.1.2.1.2l.5.5.3.4.2.2h0c.3.5.6.8.9,1.2h0s.1.2.1.2l.5.6.3.3h.1c0,.1.1.3.1.3.3.4.6.7.9,1.1h0c0,0,.7.8.7.8l.2.3h.1c0,.1.1.3.1.3l.2.3.6.7h0c.3.4.6.8.9,1.2h0c0,.1.1.3.1.3l.3.4.5.6h.1c0,.1,0,.2,0,.2.3.4.6.7.9,1.1h0c0,.1.1.3.1.3l.3.4.4.5v.2c.1,0,.2,0,.2,0,.3.4.6.8.8,1.1h0c0,0,.1.2.1.2l.4.5.3.4v.2c.1,0,.2.1.2.1.3.4.5.8.8,1.1h0s.1.2.1.2l.4.6.3.4v.2c.1,0,.2.1.2.1.3.4.5.8.8,1.2h0s0,.1,0,.1l.5.7.2.3v.2c0,0,.2.1.2.1.2.4.5.8.7,1.2,48.7,77.5,11.8,187.4-92.2,274.8-74.7,66.7-223.2,108.5-342.5,129.7-.6-.7-1.3-1.4-1.9-2.1h0l-.6-.7-1.3-1.4h0s-.8-.9-.8-.9l-1.1-1.2h0s-.8-.9-.8-.9l-1.1-1.2h0s0,0,0,0l-.8-.9-1-1.1h0s0,0,0,0l-.9-.9-1-1.1h0s0,0,0,0l-.9-1-1-1.1h0c0-.1-.9-1.1-.9-1.1l-1-1.1h0c0,0,0-.1,0-.1l-.9-1-.9-1h0c0,0,0-.1,0-.1l-.9-1-.9-1h0c0,0,0-.2,0-.2l-.9-1-.9-1h0c0,0,0-.2,0-.2l-.9-1-.9-1h0c0,0,0-.2,0-.2l-.9-1-.8-1h0c0,0,0-.2,0-.2l-.9-1.1-.8-.9h0c0,0-.1-.2-.1-.2l-1-1.1-.8-.9h0c0-.1-.1-.2-.1-.2l-1-1.1-.8-.9h0c0-.1-.1-.3-.1-.3l-1-1.1-.7-.9h0c0-.1-.1-.3-.1-.3l-1-1.2-.7-.8h0c0-.1-.2-.3-.2-.3l-1-1.2-.7-.8h0c0-.1-.2-.3-.2-.3l-1-1.2-.6-.8h-.1c0-.1-.2-.3-.2-.3l-1.1-1.2-.6-.7h0c0-.1-.2-.3-.2-.3l-1.1-1.3-.5-.7h0c0-.1-.2-.4-.2-.4l-1.1-1.3-.5-.6h0c0-.1-.2-.4-.2-.4l-1.2-1.4-.5-.6h0c0-.1-.2-.4-.2-.4l-1.2-1.4-.4-.5h0c0-.1-.3-.4-.3-.4l-1.2-1.5-.4-.4h0c0,0-.3-.4-.3-.4l-1.2-1.5-.3-.4h0c0,0-.3-.5-.3-.5l-1.3-1.6-.3-.3h0c0,0-.3-.5-.3-.5l-1.3-1.6-.2-.2h0c0,0-.4-.5-.4-.5l-1.4-1.7v-.2c-.1,0-.2,0-.2,0l-.4-.5-1.4-1.8h0c0,0,0-.1,0-.1-62.8-77.3-120.1-166.2-134.8-240.8-30.3-132.5,6.6-242.4,92.2-274.8,85.6-32.4,219.9,12.7,249.8,146.5,28.3-24,58.7-38.2,89.1-44.7h0ZM362.1,65.8h-1.8s-.8,0-.8,0h-.2c-.5,0-.9,0-1.4,0h-.2s-.8,0-.8,0h-.4s-.2,0-.2,0h-.2s-.4,0-.4,0h-.8c0,0-.1,0-.1,0h0c-.5,0-.9,0-1.4,0h-.1s-.8,0-.8,0h-.4s-.1,0-.1,0h-.2s-.4,0-.4,0h-.7c0,0-.1,0-.1,0h0c-.5,0-.9,0-1.4.2h-1c0,.1-.4.2-.4.2h-.3s-.5,0-.5,0h-.7c0,0-.1.1-.1.1h0c-.5,0-.9.1-1.4.2h0l-1,.2h-.3c0,0-.1,0-.1,0h-.2s-.5,0-.5,0h-.7c0,.1-.1.2-.1.2h0c-.5,0-.9.2-1.4.3l-1,.2h-.3c0,0-.1,0-.1,0h-.2s-.5.1-.5.1h-.6c0,.1-.2.2-.2.2h0c-.9.2-1.8.4-2.7.6h-.1s-.2,0-.2,0h-.5c0,.1-.6.3-.6.3h-.2s0,0,0,0c-.9.2-1.8.5-2.7.7h-.1s-.5.2-.5.2h-.2c0,0-.1,0-.1,0l-.6.2h-.2c0,0-.2.1-.2.1h-.2c0,0-.2.1-.2.1l-.5.2h-.1s-.1,0-.1,0l-.6.2h-.2c0,0-.3.2-.3.2h-.2c0,0-.6.3-.6.3h-.1s0,0,0,0l-.6.2h-.2c0,0-.1.1-.1.1h-.1c0,0-.2.1-.2.1l-.7.2h-.1s-.6.3-.6.3h-.2c0,0-.1.1-.1.1h-.1c-.3.2-.6.3-.9.4h0s-.6.3-.6.3h-.3c0,.1-.1.2-.1.2h-.1c-.3.2-.6.3-1,.4h0l-.6.3h-.3c0,.1-.1.2-.1.2h0c-.3.2-.6.3-1,.5l-.7.3h-.3c0,.1,0,.2,0,.2h0c-.7.3-1.3.6-2,.9h0s0,0,0,0c-.7.3-1.3.6-2,.9h0s0,0,0,0c-.7.3-1.4.7-2,1h0c-18,9.4-34.5,24.1-46.9,45.3-4.4-7.1-9.1-13.4-14.3-19l-.3-.4-.2-.2h0c-.9-.9-1.7-1.8-2.6-2.7h0c0,0-.4-.5-.4-.5h-.1c0-.1,0-.2,0-.2h-.1c0-.1-.4-.5-.4-.5h0c0,0-.1-.2-.1-.2l-.2-.2h-.1c0-.1-.1-.2-.1-.2l-.2-.2h-.1c0-.1-.1-.2-.1-.2l-.2-.2-.2-.2h-.1c0-.1,0-.2,0-.2l-.2-.2-.2-.2h0c0,0,0-.1,0-.1l-.3-.3-.2-.2h0s0,0,0,0h0c0,0-.5-.5-.5-.5l-.5-.5h0c0,0,0,0,0,0-.3-.3-.6-.6-1-.9h-.1c0-.1,0-.2,0-.2-.3-.3-.6-.6-.9-.8h-.1c0-.1-.1-.2-.1-.2-.3-.3-.6-.5-.9-.8h-.1c0,0-.1-.2-.1-.2-.3-.3-.6-.5-.9-.8h0c0,0-.2-.2-.2-.2l-.4-.3-.4-.3h-.1c0-.1-.1-.2-.1-.2l-.6-.5-.3-.2-.2-.2h-.1c-.3-.3-.6-.5-.9-.8h-.2c0-.1-.2-.2-.2-.2-.3-.2-.6-.4-.9-.6h-.1c0-.1-.2-.2-.2-.2l-.2-.2-.6-.4h-.1c0,0-.2-.2-.2-.2l-.3-.2-.4-.3-.2-.2h-.2c0-.1-.5-.5-.5-.5l-.2-.2-.2-.2h-.1c-.3-.3-.6-.5-.8-.7l-.2-.2h-.2c-.3-.3-.6-.5-.8-.7h-.2c0-.1-.2-.3-.2-.3h-.2c0-.1-.6-.5-.6-.5h-.2c0-.1-.3-.3-.3-.3l-.3-.2-.3-.2-.3-.2-.3-.2-.4-.2h-.2c0-.1-.3-.3-.3-.3h-.2c-.3-.2-.5-.4-.8-.6h-.2c0-.1-.2-.3-.2-.3-.3-.2-.5-.3-.8-.4h-.2c0-.1-.3-.3-.3-.3h-.2c0,0-.5-.3-.5-.3l-.3-.2-.3-.2h-.3c0-.1-.3-.3-.3-.3l-.3-.2-.4-.2-.4-.2h-.2c0,0-.3-.3-.3-.3h-.2c0-.1-.6-.4-.6-.4h-.1c0,0-.3-.2-.3-.2h-.2c-.3-.2-.5-.4-.8-.5h-.2c0-.1-.3-.2-.3-.2h-.1c0,0-.4-.3-.4-.3l-.4-.2-.4-.2h-.2c0-.1-.3-.2-.3-.2l-.4-.2-.4-.2-.4-.2h-.2c0,0-.3-.2-.3-.2h-.3c0-.1-.6-.4-.6-.4h-.1s-.3-.2-.3-.2h-.3c-.3-.2-.5-.3-.8-.4h-.2c0,0-.3-.2-.3-.2h-.1c0,0-.4-.2-.4-.2l-.4-.2h-.4c0-.1-.2-.2-.2-.2h-.3c0,0-.4-.2-.4-.2l-.4-.2h-.4c0-.1-.2-.2-.2-.2h-.4c0-.1-.3-.2-.3-.2l-.6-.2h-.1s-.3-.1-.3-.1h-.3c-.3-.2-.5-.3-.8-.4h-.2c0,0-.3-.2-.3-.2h-.1s-.4-.2-.4-.2h-.4c0-.1-.4-.2-.4-.2h-.2c0,0-.3-.2-.3-.2h-.4c0-.1-.4-.2-.4-.2h-.4c0-.1-.2-.2-.2-.2h-.4c0-.1-.3-.2-.3-.2l-.6-.2h-.1s-.3-.1-.3-.1h-.3c-.3-.1-.5-.2-.8-.3-1.9-.5-3.8-.9-5.8-1.3h0s-.1,0-.1,0l-.9-.2h-.4c0,0-.1,0-.1,0h-.2s-.7-.2-.7-.2h-.5c0,0-.1-.1-.1-.1h-.2s-.5-.1-.5-.1h-.6c0,0-.2-.1-.2-.1h-.1s-.4,0-.4,0h-.7c0-.1-.2-.2-.2-.2h-.4c0,0-.9-.2-.9-.2h-.1c-1.4-.2-2.9-.4-4.3-.5h-1.1c0-.1-.3-.1-.3-.1h-.2s-.8,0-.8,0h-.4s-.1,0-.1,0h-.2s-.6,0-.6,0h-.4s-.2,0-.2,0h-.7s-.6,0-.6,0h-.3s-.4,0-.4,0h-.7s-.2,0-.2,0h-.1s-.3,0-.3,0h-.9s-.2,0-.2,0c-1.4,0-2.9,0-4.3,0h-1.4s-.3,0-.3,0h-.8s-.3,0-.3,0h-1s-.4,0-.4,0h-.9s-.5,0-.5,0h-.2s-.2,0-.2,0h-.4s-.6,0-.6,0h-.3s-.1,0-.1,0h-.3s-.8,0-.8,0h-.2s0,0,0,0h-.2s-1.1.1-1.1.1h-.1c-.9,0-1.9.2-2.8.3h-.2s-.9.1-.9.1h-.2s-.1,0-.1,0h-.3c0,0-.7.1-.7.1h-.3s-.2,0-.2,0h-.3s-.5.1-.5.1h-.4c0,0-.2,0-.2,0h-.2s-.4.1-.4.1h-.4c0,0-.3.1-.3.1h-.2s-.3,0-.3,0h-.6c0,0-.3.1-.3.1h-.1s-.2,0-.2,0h-.7c0,.1-.3.2-.3.2h0s-.2,0-.2,0l-.9.2h-.2c0,0,0,0,0,0-.9.2-1.8.4-2.6.6h-.3c0,0-.8.3-.8.3h-.2c0,0-.1,0-.1,0h-.3c0,0-.6.2-.6.2h-.2c0,0-.2.1-.2.1h-.3c0,0-.5.2-.5.2h-.3c0,0-.2.1-.2.1h-.3c0,0-.4.2-.4.2h-.4c0,.1-.3.2-.3.2h-.2c0,0-.3.1-.3.1h-.5c0,.1-.3.2-.3.2h-.2c0,0-.2.1-.2.1l-.6.2h-.3c0,0-.1.1-.1.1h-.1s-.8.3-.8.3h-.3c0,0,0,0,0,0-.8.3-1.7.6-2.5.8h0s-.3.1-.3.1l-.7.2h-.2c0,0-.1,0-.1,0h-.3c0,.1-.6.3-.6.3h-.2c0,0-.2.1-.2.1h-.3c0,.1-.4.3-.4.3h-.3c0,.1-.2.2-.2.2h-.3c0,.1-.3.2-.3.2l-.4.2h-.3c0,.1-.2.2-.2.2h-.3c0,.1-.4.3-.4.3h-.3c0,.1-.2.2-.2.2h-.2c0,0-.5.3-.5.3l-.3.2h-.1s-.1,0-.1,0l-.7.3h-.3c0,.1,0,.2,0,.2-.4.2-.8.3-1.2.5l-1.1.5h0s0,0,0,0l-.3.2-.6.3h-.1c0,0-.1.1-.1.1l-.3.2-.5.3h-.2c0,0-.2.2-.2.2l-.3.2-.4.2h-.2c0,.1-.2.2-.2.2h-.2c0,.1-.3.3-.3.3l-.3.2h-.2c0,.1-.2.2-.2.2h-.2c0,.1-.4.4-.4.4l-.3.2h-.2c0,0-.2.2-.2.2l-.5.3-.3.2h0c0,0-.1.1-.1.1l-.6.4-.3.2h0c-.3.2-.7.5-1.1.7l-1,.6h0s0,0,0,0l-.3.2-.6.4h-.1c0,0,0,.1,0,.1l-.3.2-.4.3h-.2c0,.1-.1.2-.1.2l-.3.2-.4.2-.2.2h-.2c0,.1-.2.3-.2.3l-.3.2-.3.2-.2.2h-.2c0,.1-.2.3-.2.3l-.3.3-.3.2h-.1c0,0-.2.2-.2.2l-.4.3-.3.2h0c0,0-.1.2-.1.2l-.5.4-.3.2h0c-.3.3-.6.5-.9.8-2.1,1.7-4.1,3.6-5.9,5.5l-.4.4c-.4.4-.7.8-1.1,1.2-.6.6-1.1,1.2-1.6,1.8-31.7,36.4-28,98.8,10.8,160.9.2.4.4.7.6,1.1h0c0,.1,0,.2,0,.2.2.4.4.7.6,1h0c0,0,0,.2,0,.2.2.4.4.7.7,1.1l.4.7v.2c.1,0,.3.3.3.3l.6,1h0c0,.1,0,.2,0,.2l.8,1.2h0c.3.5.6.9.9,1.3h0c0,.1.2.4.2.4l.4.6.2.3v.2c.1,0,.3.3.3.3l.3.4.3.4.2.3v.2c.1,0,.3.3.3.3l.5.6.2.3h0c0,.1,0,.2,0,.2l.9,1.2h0c.3.5.7.9,1,1.3h0c0,0,.2.4.2.4l.5.7.2.3v.2c.1,0,.3.3.3.3l.3.5.3.4.2.3.2.2.2.3.5.6.2.3h0c.7,1,1.4,1.9,2.2,2.7h0c0,0,.2.3.2.3l.6.7.2.3v.2c.1,0,.3.2.3.2l.4.5.4.5.2.2.2.2.3.3.6.7.2.2h0c.8,1,1.6,1.9,2.4,2.8h0s.2.2.2.2l.7.8.3.3h.1c0,.1.2.3.2.3l.5.5.5.5.3.3.3.4.7.8h.1c0,.1,0,.2,0,.2.9.9,1.7,1.8,2.6,2.7h0s0,0,0,0l.9.9.3.4h0c0,0,.1.2.1.2l.6.6.6.6.6.6.9.9h0c36.5,35.8,88.7,69,134.3,93.3,61.9-34.6,136.1-86.3,164.6-137.5,40.8-68.3,40.1-136.2-1.7-169.8-13.7-11-31.9-18.3-51.6-20.7h-1.1c0-.1-.1-.1-.1-.1h-.1s-.3,0-.3,0h-.5c0,0-.3,0-.3,0h-.3s-.2,0-.2,0h-.2s-.7,0-.7,0h-.3s0,0,0,0c-.4,0-.8,0-1.2,0h-.4s-.5,0-.5,0h-.4s-.2,0-.2,0h-.5s-.7,0-.7,0h-.3c-.4,0-.9,0-1.3,0h-.9s-.4,0-.4,0h-.2s-.5,0-.5,0h-.8s-.2,0-.2,0h0s-1.6,0-1.6,0"/>
</svg>